# xmcd
#
# Track frame offsets:
#	150
#	11057
#	25214
#	38998
#	54361
#	68209
#	82121
#	95890
#	108939
#	122429
#	135660
#	149244
#	162420
#	176042
#	190596
#	203900
#	216506
#	230792
#
# Disc length: 3245 seconds
#
# Revision: 1
# Processed by: cddbd v1.5.1PL0 Copyright (c) Steve Scherf et al.
# Submitted via: audiograbber 1.81.02
#
DISCID=120cab12
DTITLE=Diverse - 20 Jahre Grand Prix der Volksmusik [CD1)
DYEAR=2005
DGENRE=Country
TTITLE0=Orchester Erich Becht - So schön ist Volksmusik
TTITLE1=Marcel - Rote Rosen für Mama
TTITLE2=Captain Cook und seine singenden Saxophone - Da tanzten wir zu Billy Va
TTITLE2=ughn
TTITLE3=Jannika - Schenk´ mir doch ein bisschen Zeit
TTITLE4=Christine Nachbauer and Thomas Kiessling - Freunde, die zusammen stehn
TTITLE5=Claudio de Bartolo - Ich hab heut Nacht mein Herz gefragt
TTITLE6=Adrian Eugster and Conny mit Südwind - Alpenzauber
TTITLE7=Sarah-Jane - Einmal hin, einmal her
TTITLE8=Combox - Wie der Wind
TTITLE9=Die Krieglacher - A starke Frau
TTITLE10=Caraboo - Du
TTITLE11=Nordwand - Nach Sonne folgt Regen
TTITLE12=Nina Stern and Zillertaler Haderlumpen - Schau nicht weg, wir sind die Z
TTITLE12=ukunft
TTITLE13=Luis Moser - Der Herzschlag der Berge
TTITLE14=Die Vinschger - Stille Lieder
TTITLE15=Die Pustertaler - Wenn i vom Berg z´rugg kimm
TTITLE16=Die Psayrer and Barbara - Berge im Feuer
TTITLE17=Etschland Express - Wenn Wolken heimwärts ziehen
EXTD=
EXTT0=
EXTT1=
EXTT2=
EXTT3=
EXTT4=
EXTT5=
EXTT6=
EXTT7=
EXTT8=
EXTT9=
EXTT10=
EXTT11=
EXTT12=
EXTT13=
EXTT14=
EXTT15=
EXTT16=
EXTT17=
PLAYORDER=
